<svg width="28" height="24" viewBox="0 0 28 24" fill="none" xmlns="http://www.w3.org/2000/svg">
<path d="M20.4121 18.6668H5.91018C4.62005 18.6667 3.3747 18.1883 2.4098 17.3222C1.44489 16.456 0.827374 15.2622 0.674089 13.9667C0.520803 12.6711 0.842387 11.3637 1.57799 10.2918C2.31359 9.21984 3.41217 8.4578 4.66586 8.14983C4.92154 6.12213 5.82857 4.23547 7.24754 2.77981C8.66652 1.32416 10.5189 0.380081 12.52 0.0926873C14.5211 -0.194707 16.5601 0.190488 18.3237 1.18907C20.0872 2.18764 21.4777 3.74434 22.2815 5.61989C23.8008 6.07294 25.1077 7.06471 25.9626 8.41333C26.8174 9.76196 27.163 11.3771 26.9358 12.9625C26.7086 14.5479 25.924 15.9973 24.7258 17.045C23.5275 18.0928 21.996 18.6685 20.4121 18.6668Z" fill="#B2B1FF"/>
<path d="M17.117 14C16.9438 14.0002 16.7724 13.9658 16.6124 13.8987C16.4524 13.8317 16.3072 13.7333 16.1849 13.6093L13.8211 11.2187L11.4573 13.6094C11.2096 13.8568 10.8751 13.995 10.5269 13.9939C10.1788 13.9928 9.84516 13.8524 9.59896 13.6034C9.35277 13.3544 9.21399 13.017 9.2129 12.6649C9.21181 12.3128 9.34851 11.9745 9.59316 11.724L12.889 8.39063C13.0114 8.26679 13.1567 8.16855 13.3167 8.10153C13.4766 8.0345 13.648 8 13.8212 8C13.9943 8 14.1657 8.0345 14.3256 8.10153C14.4856 8.16855 14.6309 8.26679 14.7533 8.39063L18.0491 11.724C18.2335 11.9104 18.359 12.148 18.4098 12.4066C18.4607 12.6652 18.4346 12.9333 18.3348 13.1769C18.235 13.4205 18.0661 13.6287 17.8493 13.7752C17.6326 13.9217 17.3777 13.9999 17.117 14Z" fill="#6563FF"/>
<path d="M13.8203 24C13.6472 24 13.4757 23.9656 13.3157 23.8986C13.1558 23.8316 13.0104 23.7334 12.888 23.6096C12.7656 23.4858 12.6685 23.3388 12.6022 23.177C12.536 23.0152 12.5019 22.8418 12.502 22.6667V9.33333C12.502 8.97971 12.6409 8.64057 12.8881 8.39052C13.1353 8.14048 13.4707 8 13.8203 8C14.17 8 14.5053 8.14048 14.7525 8.39052C14.9998 8.64057 15.1387 8.97971 15.1387 9.33333V22.6667C15.1387 22.8418 15.1046 23.0152 15.0384 23.177C14.9722 23.3388 14.875 23.4858 14.7526 23.6096C14.6302 23.7334 14.4848 23.8316 14.3249 23.8986C14.1649 23.9656 13.9934 24 13.8203 24Z" fill="#6563FF"/>
</svg>
