<svg width="24" height="24" viewBox="0 0 24 24" fill="none" xmlns="http://www.w3.org/2000/svg">
<path d="M20.0565 22H3.94222C3.4117 21.9999 2.89056 21.8602 2.43114 21.5949C1.97172 21.3296 1.59022 20.9481 1.32495 20.4886C1.05968 20.0292 0.919992 19.508 0.919922 18.9775C0.919852 18.447 1.0594 17.9258 1.32455 17.4663L9.38167 3.51123C9.64698 3.05176 10.0286 2.67021 10.4881 2.40493C10.9475 2.13966 11.4688 2 11.9993 2C12.5299 2 13.0511 2.13966 13.5106 2.40493C13.9701 2.67021 14.3517 3.05176 14.617 3.51123L22.6741 17.4663C22.9393 17.9258 23.0788 18.447 23.0788 18.9775C23.0787 19.508 22.939 20.0292 22.6737 20.4886C22.4085 20.9481 22.027 21.3296 21.5676 21.5949C21.1081 21.8602 20.587 21.9999 20.0565 22Z" fill="#B2B1FF"/>
<path d="M12.0781 18C12.6304 18 13.0781 17.5523 13.0781 17C13.0781 16.4477 12.6304 16 12.0781 16C11.5258 16 11.0781 16.4477 11.0781 17C11.0781 17.5523 11.5258 18 12.0781 18Z" fill="#6563FF"/>
<path d="M12.0781 14C11.8129 14 11.5586 13.8946 11.371 13.7071C11.1835 13.5196 11.0781 13.2652 11.0781 13V9C11.0781 8.73478 11.1835 8.48043 11.371 8.29289C11.5586 8.10536 11.8129 8 12.0781 8C12.3433 8 12.5977 8.10536 12.7852 8.29289C12.9728 8.48043 13.0781 8.73478 13.0781 9V13C13.0781 13.2652 12.9728 13.5196 12.7852 13.7071C12.5977 13.8946 12.3433 14 12.0781 14Z" fill="#6563FF"/>
</svg>
